<?xml version="1.0" encoding="UTF-8"?>
<svg width="167px" height="100px" viewBox="0 0 167 100" version="1.1" xmlns="http://www.w3.org/2000/svg" xmlns:xlink="http://www.w3.org/1999/xlink">
    <title>Logo</title>
    <defs>
        <linearGradient x1="51.085578%" y1="64.0174474%" x2="30.4683447%" y2="41.8135863%" id="linearGradient-1">
            <stop stop-color="#20313B" offset="0%"></stop>
            <stop stop-color="#FFFFFF" offset="100%"></stop>
        </linearGradient>
        <polygon id="path-2" points="0 99.5755 166.174 99.5755 166.174 0 0 0"></polygon>
    </defs>
    <g id="Symbols" stroke="none" stroke-width="1" fill="none" fill-rule="evenodd">
        <g id="//-Footer" transform="translate(-89.000000, -54.000000)">
            <g id="Logo">
                <g transform="translate(89.000000, 54.000000)">
                    <path d="M52.76905,0.0154 C58.87105,5.2164 59.10705,14.2789 53.44855,26.9699 C50.55755,33.4529 46.22905,39.9734 40.58255,46.3489 C31.77005,56.1774 25.43105,65.3569 21.74205,73.6309 C17.20555,83.8069 16.48155,92.5099 19.59005,99.5004 L19.59005,99.5004 L19.42755,99.5714 L19.21705,99.5714 C16.10405,92.4964 16.83705,83.7179 21.40205,73.4799 C25.10705,65.1694 31.46705,55.9574 40.30505,46.1009 C45.92505,39.7549 50.23305,33.2664 53.10805,26.8184 C58.74555,14.1734 58.49355,5.1989 52.35805,0.1439 L52.35805,0.1439 L52.46405,0.0154 Z M55.54275,0.01525 C60.82225,5.42775 61.04925,13.99325 56.20625,25.50175 C55.97775,26.04375 55.73725,26.59275 55.48625,27.14775 C52.58625,33.55825 48.28775,40.09125 42.64425,46.53375 C40.80125,48.63725 39.01575,50.71125 37.30575,52.76925 C31.79625,59.40075 27.56225,65.78575 24.67575,71.81825 C24.36275,72.47175 24.06575,73.12075 23.78525,73.76425 C21.71925,78.49525 20.49225,82.92025 20.10975,87.00075 C19.66725,91.80475 20.41475,95.97675 22.34525,99.46625 C22.35375,99.47275 22.23175,99.53625 22.24025,99.54325 L22.24025,99.54325 L22.16075,99.57175 L21.99275,99.57175 C20.03625,96.00475 19.28625,91.75025 19.75225,86.85775 C20.14775,82.77525 21.37675,78.35725 23.43325,73.64175 C23.73375,72.95175 24.05325,72.25625 24.39025,71.55425 C27.29975,65.49975 31.55675,59.09525 37.08625,52.44925 C38.77575,50.41925 40.53825,48.37375 42.35475,46.30025 C47.97475,39.88525 52.25525,33.38275 55.14125,27.00475 C55.39825,26.43775 55.64325,25.87675 55.87625,25.32275 C60.68525,13.88075 60.43825,5.40925 55.13825,0.13025 L55.13825,0.13025 L55.25075,0.01525 Z M58.31675,0.01545 C63.04225,5.86795 63.02325,14.49795 58.25075,25.68645 C58.01975,26.22745 57.77675,26.77395 57.52375,27.32595 C54.61475,33.66395 50.32525,40.19095 44.70575,46.71845 C42.90725,48.80695 41.12175,50.87945 39.36575,52.94595 C33.82525,59.45995 29.57675,65.83395 26.70475,71.94445 C26.39625,72.60095 26.10425,73.25195 25.82825,73.89795 C23.80425,78.63195 22.63475,83.07195 22.32975,87.16545 C21.97525,92.08595 22.90375,96.19545 25.10075,99.43195 C25.11725,99.44545 25.03625,99.50195 25.05275,99.51495 L25.05275,99.51495 L24.96475,99.57145 L24.76875,99.57145 C22.53625,96.25795 21.59575,92.06695 21.96875,87.05645 C22.28325,82.95995 23.45225,78.52495 25.46425,73.80395 C25.75925,73.11145 26.07325,72.41295 26.40525,71.70895 C29.29925,65.57195 33.56975,59.17545 39.13225,52.64295 C40.86725,50.60395 42.62975,48.55945 44.40375,46.49945 C50.00325,39.99745 54.27725,33.49945 57.17475,27.19145 C57.43425,26.62645 57.68225,26.06745 57.91825,25.51495 C62.65875,14.38995 62.66025,5.84795 57.91875,0.11645 L57.91875,0.11645 L58.03675,0.01545 Z M61.0902,0.0156 C65.2622,6.3081 64.9977,15.0021 60.2952,25.8721 C60.0617,26.4111 59.8167,26.9551 59.5612,27.5036 C56.6437,33.7696 52.3497,40.2791 46.7667,46.9031 C45.0087,48.9736 43.2282,51.0476 41.4252,53.1221 C35.8542,59.5186 31.5912,65.8821 28.7337,72.0706 C28.4297,72.7291 28.1417,73.3831 27.8707,74.0316 C25.8887,78.7681 24.7767,83.2241 24.5497,87.3306 C24.2832,92.3666 25.3927,96.4146 27.8557,99.3976 C27.8802,99.4176 27.8407,99.4666 27.8657,99.4866 L27.8657,99.4866 L27.7692,99.5716 L27.5437,99.5716 C25.0367,96.5111 23.9047,92.3831 24.1852,87.2556 C24.4182,83.1446 25.5272,78.6926 27.4957,73.9661 C27.7852,73.2706 28.0937,72.5701 28.4207,71.8636 C31.2982,65.6446 35.5837,59.2556 41.1782,52.8371 C42.9592,50.7886 44.7172,48.7416 46.4527,46.6986 C52.0187,40.0991 56.2997,33.6156 59.2082,27.3771 C59.4702,26.8156 59.7207,26.2586 59.9597,25.7066 C64.6327,14.8986 64.8822,6.2861 60.6992,0.1021 L60.6992,0.1021 L60.8232,0.0156 Z M63.8642,0.0153 C67.4822,6.7483 66.9717,15.5063 62.3397,26.0568 C62.1037,26.5943 61.8562,27.1358 61.5987,27.6813 C58.6717,33.8753 54.3897,40.3813 48.8282,47.0873 C47.1157,49.1443 45.3342,51.2153 43.4852,53.2988 C37.8827,59.5778 33.6057,65.9298 30.7627,72.1973 C30.4627,72.8583 30.1797,73.5138 29.9137,74.1648 C27.9737,78.9053 26.9192,83.3758 26.7697,87.4948 C26.5907,92.6473 27.8817,96.6338 30.6112,99.3638 C30.6442,99.3903 30.6452,99.4318 30.6782,99.4583 L30.6782,99.4583 L30.5732,99.5718 L30.3197,99.5718 C27.5367,96.7643 26.2142,92.6993 26.4012,87.4543 C26.5537,83.3293 27.6027,78.8603 29.5267,74.1283 C29.8107,73.4303 30.1137,72.7268 30.4362,72.0178 C33.2977,65.7173 37.5967,59.3353 43.2242,53.0308 C45.0502,50.9733 46.8102,48.9283 48.5017,46.8978 C54.0497,40.2138 58.3217,33.7318 61.2417,27.5633 C61.5057,27.0048 61.7597,26.4498 62.0017,25.8988 C66.6062,15.4073 67.1042,6.7243 63.4802,0.0883 L63.4802,0.0883 L63.6092,0.0153 Z M66.6382,0.0154 C69.7022,7.1884 68.9457,16.0109 64.3842,26.2424 C60.6347,34.6529 54.2962,43.8154 45.5452,53.4754 C39.9117,59.6369 35.6207,65.9779 32.7917,72.3234 C30.3507,77.7989 29.0717,82.9584 28.9897,87.6594 C28.8972,93.0004 30.4112,96.9604 33.4907,99.4299 L33.4907,99.4299 L33.3777,99.5714 L33.0952,99.5714 C30.0367,97.0179 28.5237,93.0159 28.6177,87.6534 C28.6997,82.9014 29.9902,77.6924 32.4512,72.1719 C35.2967,65.7894 39.6097,59.4149 45.2702,53.2244 C53.9937,43.5939 60.3107,34.4649 64.0437,26.0909 C68.5807,15.9164 69.3257,7.1629 66.2602,0.0744 L66.2602,0.0744 L66.3962,0.0154 Z" id="Combined-Shape" fill="url(#linearGradient-1)"></path>
                    <mask id="mask-3" fill="white">
                        <use xlink:href="#path-2"></use>
                    </mask>
                    <g id="Clip-16"></g>
                    <path d="M135.21775,59.9363 L166.17375,59.9363 L166.17375,57.7773 L137.14775,57.7773 C136.28275,58.2983 135.64175,59.0198 135.21775,59.9363" id="Fill-22" fill="#FFFFFF" mask="url(#mask-3)"></path>
                    <path d="M0,57.77715 L0,59.93615 L26.8175,59.93615 C27.3115,59.22165 27.8255,58.50065 28.35,57.77715 L0,57.77715 Z" id="Fill-23" fill="#FFFFFF" mask="url(#mask-3)"></path>
                    <path d="M63.55445,77.992 C60.70045,77.992 58.27195,76.985 56.26645,74.9705 C54.26095,72.956 53.25895,70.531 53.25895,67.697 C53.25895,64.8435 54.26095,62.41 56.26645,60.3945 C58.27195,58.3805 60.70045,57.373 63.55445,57.373 L63.55445,59.3965 C61.27945,59.3965 59.33195,60.206 57.71245,61.826 C56.09295,63.446 55.28295,65.402 55.28295,67.697 C55.28295,69.9725 56.09295,71.919 57.71245,73.538 C59.33195,75.159 61.27945,75.9685 63.55445,75.9685 L63.55445,77.992 Z" id="Fill-13" fill="#FFFFFF" mask="url(#mask-3)"></path>
                    <polygon id="Fill-15" fill="#FFFFFF" mask="url(#mask-3)" points="67.3925 77.5875 69.3585 77.5875 69.3585 57.777 67.3925 57.777"></polygon>
                    <polygon id="Fill-17" fill="#FFFFFF" mask="url(#mask-3)" points="83.7324 77.5877 75.1429 77.5877 75.1429 57.7772 83.7324 57.7772 83.7324 59.7432 77.1094 59.7432 77.1094 66.6842 83.7324 66.6842 83.7324 68.6512 77.1094 68.6512 77.1094 75.6207 83.7324 75.6207"></polygon>
                    <polygon id="Fill-18" fill="#FFFFFF" mask="url(#mask-3)" points="99.2129 78.1375 90.8259 64.2265 90.8259 77.5875 88.8594 77.5875 88.8594 57.2275 97.2459 71.196 97.2459 57.777 99.2129 57.777"></polygon>
                    <path d="M113.28855,77.992 C110.43455,77.992 108.00555,76.985 106.00055,74.9705 C103.99505,72.956 102.99305,70.531 102.99305,67.697 C102.99305,64.8435 103.99505,62.41 106.00055,60.3945 C108.00555,58.3805 110.43455,57.373 113.28855,57.373 L113.28855,59.3965 C111.01305,59.3965 109.06655,60.206 107.44555,61.826 C105.82655,63.446 105.01755,65.402 105.01755,67.697 C105.01755,69.9725 105.82655,71.919 107.44555,73.538 C109.06655,75.159 111.01305,75.9685 113.28855,75.9685 L113.28855,77.992 Z" id="Fill-19" fill="#FFFFFF" mask="url(#mask-3)"></path>
                    <polygon id="Fill-20" fill="#FFFFFF" mask="url(#mask-3)" points="126.2153 77.5877 117.6253 77.5877 117.6253 57.7772 126.2153 57.7772 126.2153 59.7432 119.5928 59.7432 119.5928 66.6842 126.2153 66.6842 126.2153 68.6512 119.5928 68.6512 119.5928 75.6207 126.2153 75.6207"></polygon>
                    <path d="M134.71775,57.77715 C133.02025,58.79965 132.17375,60.58265 132.17375,63.12765 C132.17375,64.41965 132.45175,65.70215 133.01225,66.97365 C133.89825,68.94015 134.34225,70.75265 134.34225,72.41115 C134.34225,74.45415 133.71475,76.18065 132.46175,77.58765 L129.68625,77.58765 C130.53375,77.08665 131.18975,76.29565 131.65275,75.21665 C132.05725,74.27115 132.25975,73.24865 132.25975,72.15115 C132.25975,70.87765 131.96975,69.62565 131.39225,68.39165 C130.50475,66.46265 130.06175,64.66115 130.06175,62.98315 C130.06175,60.93915 130.68825,59.20465 131.94125,57.77715 L134.71775,57.77715 Z" id="Fill-21" fill="#FFFFFF" mask="url(#mask-3)"></path>
                    <path d="M11.70385,35.7371 C11.70385,33.7441 10.99885,32.0496 9.58935,30.6541 C8.17985,29.2596 6.47785,28.5601 4.48485,28.5601 L4.48485,28.5181 L2.90435,28.5181 L2.90435,42.9561 L4.48485,42.9561 C6.47785,42.9561 8.17985,42.2506 9.58935,40.8416 C10.99885,39.4316 11.70385,37.7301 11.70385,35.7371 L11.70385,35.7371 Z M14.82185,54.8736 L10.93485,54.8736 L2.98985,45.8611 L2.90435,45.8611 L2.90435,54.8736 L-0.00015,54.8736 L-0.00015,25.6136 L4.48485,25.6136 C7.27535,25.6136 9.66035,26.6031 11.63985,28.5826 C13.61885,30.5616 14.60835,32.9466 14.60835,35.7371 C14.60835,38.1016 13.87485,40.2076 12.40885,42.0586 C10.94185,43.9111 9.05535,45.0916 6.74885,45.6041 L14.82185,54.8736 Z" id="Fill-24" fill="#FFFFFF" mask="url(#mask-3)"></path>
                    <polygon id="Fill-25" fill="#FFFFFF" mask="url(#mask-3)" points="31.8613 54.8738 19.1753 54.8738 19.1753 25.6133 31.8613 25.6133 31.8613 28.5183 22.0798 28.5183 22.0798 38.7703 31.8613 38.7703 31.8613 41.6748 22.0798 41.6748 22.0798 51.9683 31.8613 51.9683"></polygon>
                    <path d="M78.95485,40.2654 C78.95485,36.8759 77.76585,33.9854 75.38835,31.5934 C73.00985,29.2019 70.12685,28.0054 66.73835,28.0054 C63.37785,28.0054 60.50185,29.2019 58.10985,31.5934 C55.71785,33.9854 54.52185,36.8759 54.52185,40.2654 C54.52185,43.6259 55.71785,46.5019 58.10985,48.8934 C60.50185,51.2849 63.37785,52.4814 66.73835,52.4814 C70.12685,52.4814 73.00985,51.2849 75.38835,48.8934 C77.76585,46.5019 78.95485,43.6259 78.95485,40.2654 M81.98785,40.2654 C81.98785,44.4509 80.49935,48.0319 77.52385,51.0074 C74.54785,53.9834 70.95235,55.4714 66.73835,55.4714 C62.52385,55.4714 58.93535,53.9834 55.97385,51.0074 C53.01235,48.0319 51.53185,44.4509 51.53185,40.2654 C51.53185,36.0504 53.01235,32.4554 55.97385,29.4794 C58.93535,26.5044 62.52385,25.0154 66.73835,25.0154 C70.95235,25.0154 74.54785,26.5044 77.52385,29.4794 C80.49935,32.4554 81.98785,36.0504 81.98785,40.2654" id="Fill-26" fill="#FFFFFF" mask="url(#mask-3)"></path>
                    <polygon id="Fill-27" fill="#FFFFFF" mask="url(#mask-3)" points="101.0781 55.68535 88.6916 35.13885 88.6916 54.87385 85.7861 54.87385 85.7861 24.80185 98.1726 45.43335 98.1726 25.61335 101.0781 25.61335"></polygon>
                    <polygon id="Fill-28" fill="#FFFFFF" mask="url(#mask-3)" points="127.29835 54.8738 124.18035 54.8738 115.72285 32.5328 107.26485 54.8738 104.14635 54.8738 115.72285 24.7173"></polygon>
                    <polygon id="Fill-29" fill="#FFFFFF" mask="url(#mask-3)" points="145.95655 55.68535 133.56955 35.13885 133.56955 54.87385 130.66455 54.87385 130.66455 24.80185 143.05205 45.43335 143.05205 25.61335 145.95655 25.61335"></polygon>
                    <polygon id="Fill-30" fill="#FFFFFF" mask="url(#mask-3)" points="166.1738 28.51835 159.8093 28.51835 159.8093 54.87385 156.9043 54.87385 156.9043 28.51835 150.5818 28.51835 150.5818 25.61335 166.1738 25.61335"></polygon>
                    <path d="M66.43165,5e-05 C56.78165,5.13905 50.56415,14.10155 47.77365,26.89455 C46.35715,33.38755 46.35615,39.83105 47.77315,46.22555 C50.07265,56.11155 50.31615,65.22305 48.49865,73.55605 C46.25815,83.82755 41.21565,92.50305 33.37465,99.57555 L19.41965,99.57555 C24.23215,97.05705 28.39465,93.08405 31.90365,87.65655 C34.97365,82.90955 37.11265,77.77005 38.31715,72.24755 C39.71265,65.85205 39.63215,59.55355 38.07765,53.35055 C35.73365,43.65955 35.48215,34.59855 37.32065,26.16655 C39.56115,15.89655 44.61065,7.17455 52.47665,5e-05 L66.43165,5e-05 Z" id="Fill-31" fill="#C51D1C" mask="url(#mask-3)"></path>
                </g>
            </g>
        </g>
    </g>
</svg>